<?xml version="1.0" encoding="UTF-8"?>
<svg version="1.1" xmlns="http://www.w3.org/2000/svg" width="1024" height="1024">
<path d="M0 0 C337.92 0 675.84 0 1024 0 C1024 337.92 1024 675.84 1024 1024 C686.08 1024 348.16 1024 0 1024 C0 686.08 0 348.16 0 0 Z " fill="#FEFEFE" transform="translate(0,0)"/>
<path d="M0 0 C1.55838334 -0.01617574 3.11671817 -0.03825573 4.67492676 -0.06665039 C14.952059 -0.234289 24.05612123 0.23224646 32.61383057 6.60046387 C38.14963491 12.26500784 41.40771156 17.97888273 41.67633057 25.97546387 C41.60080033 32.22936721 40.28997404 36.50848081 36.30133057 41.35046387 C29.89533766 47.35608222 24.18086808 49.68201652 15.38726807 49.44030762 C13.81484928 49.41710568 12.24242026 49.3945888 10.66998291 49.37268066 C9.44562531 49.3508522 9.44562531 49.3508522 8.1965332 49.32858276 C-5.70562339 49.10451734 -19.1024479 49.13200346 -32.69866943 52.35046387 C-33.78728271 52.58394531 -33.78728271 52.58394531 -34.89788818 52.82214355 C-73.21304919 61.08199539 -106.70363392 81.50995507 -134.69866943 108.35046387 C-135.65773193 109.2566748 -136.61679443 110.16288574 -137.60491943 111.09655762 C-163.7423569 136.38966775 -177.60147024 168.7754609 -186.69866943 203.35046387 C-186.99668457 204.44753662 -186.99668457 204.44753662 -187.30072021 205.56677246 C-191.73460537 223.27457654 -189.83443257 244.05948343 -180.43695068 259.79968262 C-168.99666308 276.58734061 -151.82504499 284.65087958 -132.57366943 289.22546387 C-96.91126766 295.56961745 -58.98132686 285.20633437 -27.69866943 268.35046387 C-27.10247803 268.03496582 -26.50628662 267.71946777 -25.89202881 267.39440918 C20.72708283 242.59427537 56.03603747 197.82475368 71.42633057 147.60046387 C73.74009249 140.49891752 77.10604729 135.42499907 83.48883057 131.41296387 C90.56949466 127.92600366 97.44411047 127.46100431 104.98883057 129.72546387 C111.91214323 132.58207425 116.3215492 137.6383738 119.80133057 144.16296387 C124.63753588 174.99377272 100.37884069 212.62138238 82.97125244 236.57092285 C78.36357515 242.7328511 73.37496 248.57072067 68.30133057 254.35046387 C67.56269775 255.20124512 66.82406494 256.05202637 66.06304932 256.92858887 C56.3116828 267.98132605 46.05873563 278.11322864 34.22613525 286.9173584 C32.90137127 287.90370601 31.58198841 288.89730895 30.26715088 289.89685059 C-15.03919998 324.31084319 -74.36910702 346.80534263 -131.80145264 339.33508301 C-165.07920252 334.37864908 -197.65212328 318.79228403 -218.18255615 291.4576416 C-226.53372639 279.84561888 -231.969886 267.12730532 -235.69866943 253.35046387 C-235.8951709 252.62657471 -236.09167236 251.90268555 -236.29412842 251.15686035 C-238.16935127 243.19987873 -238.05277894 235.16194155 -238.01116943 227.03796387 C-238.00901428 226.28413422 -238.00685913 225.53030457 -238.00463867 224.75363159 C-237.84860328 190.69507494 -228.72768342 159.31324797 -212.69866943 129.35046387 C-212.08507568 128.1941748 -211.47148193 127.03788574 -210.83929443 125.84655762 C-202.7554389 111.16534065 -192.78462753 97.8809559 -181.69866943 85.35046387 C-180.95101318 84.49194824 -180.20335693 83.63343262 -179.43304443 82.74890137 C-170.26340628 72.35884375 -160.58297627 62.93733468 -149.69866943 54.35046387 C-148.98195068 53.74331543 -148.26523193 53.13616699 -147.52679443 52.51062012 C-125.6568237 34.16931487 -99.6873359 20.3985588 -72.69866943 11.35046387 C-71.967771 11.1036084 -71.23687256 10.85675293 -70.48382568 10.60241699 C-58.79599671 6.73149382 -46.8425378 4.30031783 -34.69866943 2.35046387 C-33.9658374 2.23041992 -33.23300537 2.11037598 -32.47796631 1.98669434 C-21.71754697 0.31379318 -10.86970794 0.10653569 0 0 Z " fill="#296CFE" transform="translate(560.6986694335938,344.6495361328125)"/>
<path d="M0 0 C8.36078091 7.21062058 14.80188155 16.74576475 16.21484375 27.91015625 C17.12056262 41.95843398 13.85489067 51.53065797 6.02734375 63.16015625 C-4.96061248 73.90393568 -17.19486696 77.33088807 -32.21875 77.1875 C-43.40581005 76.31753147 -53.50968025 70.03934736 -61.15234375 62.0234375 C-68.93927015 51.94514281 -71.98816929 40.44281105 -70.78515625 27.91015625 C-68.32772129 15.44639927 -62.21662293 5.27796695 -51.78515625 -2.08984375 C-35.19105506 -12.04101129 -15.73794109 -12.0138902 0 0 Z " fill="#296CFE" transform="translate(731.78515625,357.08984375)"/>
<path d="M0 0 C0.66 0.33 1.32 0.66 2 1 C-1.66616663 6.02400613 -5.54743551 8.2852698 -11 11 C-7.6189962 6.86378916 -4.33409466 3.18683431 0 0 Z " fill="#1759FE" transform="translate(412,398)"/>
</svg>
